<?xml version="1.0" encoding="utf-8"?>
<!-- Generator: Adobe Illustrator 22.0.1, SVG Export Plug-In . SVG Version: 6.00 Build 0)  -->
<svg version="1.1" id="Layer_1" xmlns="http://www.w3.org/2000/svg" xmlns:xlink="http://www.w3.org/1999/xlink" x="0px" y="0px"
	 viewBox="0 0 1010.4 566.9" style="enable-background:new 0 0 1010.4 566.9;" xml:space="preserve">
<style type="text/css">
	.st0{fill:#990AE3;stroke:#88068C;stroke-miterlimit:10;}
	.st1{fill:#990AE3;}
	.st2{fill:none;stroke:#88068C;stroke-miterlimit:10;}
	.st3{fill:#FFFFFF;stroke:#88068C;stroke-miterlimit:10;}
	.st4{opacity:0.2;}
</style>
<g>
	<g>
		<g>
			<g>
				<g>
					<g>
						<g>
							<path class="st0" d="M462.4,236.1c-4.8,0-9.7-3.6-14.5-10.9c-3.2-5-4.7-8.8-4.7-11.4c0-4.5,2.9-8.6,8.8-12.4
								c5.9-3.8,12.2-5.7,19.1-5.7h114c7.2,0,10.9,3.3,10.9,10c0,7.6-2,14.6-6.1,20.9c-4.1,6.3-8.5,9.5-13.4,9.5h-37.1V362
								c0,7.6-2,14.6-6.1,20.9s-8.6,9.5-13.4,9.5c-4.8,0-9.7-3.6-14.5-10.9c-3.2-5-4.7-8.8-4.7-11.4v-134H462.4z"/>
							<path class="st0" d="M604.8,334.2c2,8.7,6.5,15.7,13.4,21s15.1,7.9,24.8,7.9c8.2,0,17.9-2.8,29.3-8.4
								c5.2-2.6,10-3.9,14.5-3.9c5.9,0,8.9,2.7,8.9,8.1c0,4.8-1.1,9.5-3.2,13.9c-2.1,4.5-4.9,7.7-8.2,9.8c-6.3,3.9-13.3,6.9-21,9.1
								c-7.7,2.1-15.4,3.2-23,3.2c-13.4,0-25.6-3.5-36.6-10.6c-11.1-7.1-19.6-16.2-25.8-27.3c-6.1-11.1-9.2-23-9.2-35.7
								c0-14.1,3.3-26.9,10-38.3s15.4-20.2,26.2-26.5c10.8-6.2,22.6-9.3,35.4-9.3c12.4,0,23.6,2.9,33.6,8.8
								c9.9,5.9,17.6,13.6,23,23.3c5.4,9.6,8.1,20.2,8.1,31.8c0,5.9-1.5,11.3-4.6,16s-6.5,7.1-10.2,7.1H604.8z M639.3,277.9
								c-8.9,0-16.5,2.6-22.9,7.7c-6.3,5.1-10.2,11.9-11.7,20.5h65.8c-0.4-8-3.5-14.7-9.5-20.1C655.1,280.6,647.9,277.9,639.3,277.9
								z"/>
							<path class="st0" d="M756.4,392.4c-8.4,0-15.6-3.3-21.7-9.9c-6.1-6.6-9.2-14.4-9.2-23.3v-148c0-4.1,2.8-8,8.5-11.7
								s11.7-5.6,18.2-5.6c6.9,0,10.3,3.2,10.3,9.5v143.8c0,2.4,0.5,4.4,1.5,6s2.8,2.9,5.4,4c3,1.3,4.5,3.9,4.5,7.8
								c0,6.9-1.9,13.1-5.6,18.8C764.6,389.6,760.6,392.4,756.4,392.4z"/>
							<path class="st0" d="M812.6,231.9c-4.8,0-9.8-3.8-15-11.4c-3.5-5.4-5.3-9.6-5.3-12.5c0-4.6,3.2-9,9.5-13.1s13.1-6.1,20.4-6.1
								c7.8,0,11.7,3.5,11.7,10.6c0,5.6-1.1,10.9-3.2,16c-2.1,5.1-4.8,9.2-8.1,12.1C819.3,230.4,816,231.9,812.6,231.9z
								 M812.6,392.4c-4.3,0-8.9-3.5-13.9-10.6c-3-4.8-4.5-8.4-4.5-10.9V267c0-4.1,2.8-8,8.5-11.7s11.7-5.6,18.3-5.6
								c6.9,0,10.3,3.2,10.3,9.5v103.9c0,5-1,9.8-2.9,14.5c-2,4.6-4.4,8.3-7.2,10.9C818.3,391.1,815.4,392.4,812.6,392.4z"/>
							<path class="st0" d="M921,392.4c-13.4,0-25.5-3.3-36.4-10s-19.3-15.5-25.4-26.3c-6-10.9-9.1-22.7-9.1-35.5
								c0-13.8,3.4-26.3,10.3-37.6c6.9-11.3,15.8-20.1,26.8-26.3c11-6.2,22.7-9.3,35.4-9.3c10.8,0,21.3,3,31.5,8.9
								c6.5-4.3,13-6.4,19.5-6.4c6.9,0,10.3,3.2,10.3,9.5v103.9c0,5-1,9.8-2.9,14.5c-2,4.6-4.4,8.3-7.2,10.9
								c-2.9,2.6-5.7,3.9-8.5,3.9c-4.3,0-8.9-3.5-13.9-10.6c-1.9-3-3.2-5.6-3.9-7.8c-1.5,4.1-3.5,7.6-6,10.6s-5.1,4.9-7.9,5.9
								C929.7,391.7,925.5,392.4,921,392.4z M923.5,357.8c8.4,0,16.2-2.3,23.4-7v-63.3c-6.9-3.9-14.6-5.9-23.1-5.9
								c-10.6,0-19.5,3.6-26.6,10.7c-7.2,7.2-10.7,16.1-10.7,26.9s3.6,19.9,10.7,27.3C904.4,354.1,913.1,357.8,923.5,357.8z"/>
						</g>
					</g>
				</g>
			</g>
		</g>
	</g>
	<g>
		<g>
			<g>
				<g>
					<path class="st1" d="M272.4,374.6c48.4-28.1,83-63.3,99-100.9c6.6-27,10.3-56.1,10.3-86.8c0-4.3-0.2-8.4-0.6-12.3
						C378.4,220,319.7,277.1,242,314.4c-93.7,45-163.9,57.1-195.3,22.8c10.9,21.5,25.5,43.2,42.1,62.7
						C127.4,434.1,190.9,421.9,272.4,374.6z"/>
					<path class="st2" d="M272.4,374.6c48.4-28.1,83-63.3,99-100.9c6.6-27,10.3-56.1,10.3-86.8c0-4.3-0.2-8.4-0.6-12.3
						C378.4,220,319.7,277.1,242,314.4c-93.7,45-163.9,57.1-195.3,22.8c10.9,21.5,25.5,43.2,42.1,62.7
						C127.4,434.1,190.9,421.9,272.4,374.6z"/>
				</g>
				<g>
					<path class="st1" d="M231.1,282.2C319.5,239.6,381,179,370.3,138.8c-17.6-30.4-53.3-42-91.5-42c-113.3,0-252.4,74.7-252.4,170
						c0,12.2,2.7,25.9,7.5,40.3C59.8,341.3,138.8,326.7,231.1,282.2z"/>
					<path class="st2" d="M231.1,282.2C319.5,239.6,381,179,370.3,138.8c-17.6-30.4-53.3-42-91.5-42c-113.3,0-252.4,74.7-252.4,170
						c0,12.2,2.7,25.9,7.5,40.3C59.8,341.3,138.8,326.7,231.1,282.2z"/>
				</g>
				<g>
					<path class="st1" d="M223.7,417.3L223.7,417.3c-62.1,25.2-97.7,17.2-117.4,1.5l-0.3-0.2c30.4,30.3,65.1,51.7,95.5,51.7
						c53.2,0,126.2-64.6,160.7-164.8C342.7,341.6,301,386,223.7,417.3z"/>
					<path class="st2" d="M223.7,417.3L223.7,417.3c-62.1,25.2-97.7,17.2-117.4,1.5l-0.3-0.2c30.4,30.3,65.1,51.7,95.5,51.7
						c53.2,0,126.2-64.6,160.7-164.8C342.7,341.6,301,386,223.7,417.3z"/>
				</g>
				<path class="st3" d="M223.6,417.3L223.6,417.3C301,386,342.7,341.6,362.2,305.4c3.5-10.2,6.6-20.8,9.3-31.7
					c-16,37.6-50.6,72.8-99,100.9c-81.5,47.3-145.1,59.5-183.6,25.3c5.5,6.5,11.3,12.7,17.2,18.6l0.3,0.2
					C126,434.4,161.5,442.5,223.6,417.3z"/>
				<path class="st3" d="M242,314.4c77.6-37.3,136.3-94.4,139.2-139.8c-1.4-14.1-5.2-25.9-10.9-35.8
					C381,179,319.5,239.6,231.1,282.2C138.8,326.7,59.8,341.3,33.9,307c3.3,9.8,7.7,20,12.8,30.2C78.1,371.5,148.4,359.4,242,314.4z
					"/>
			</g>
		</g>
	</g>
</g>
<g>
	<g>
		<g>
			<g>
				<g>
					<g>
						<g>
							<path class="st0" d="M462.4,236.1c-4.8,0-9.7-3.6-14.5-10.9c-3.2-5-4.7-8.8-4.7-11.4c0-4.5,2.9-8.6,8.8-12.4
								c5.9-3.8,12.2-5.7,19.1-5.7h114c7.2,0,10.9,3.3,10.9,10c0,7.6-2,14.6-6.1,20.9c-4.1,6.3-8.5,9.5-13.4,9.5h-37.1V362
								c0,7.6-2,14.6-6.1,20.9s-8.6,9.5-13.4,9.5c-4.8,0-9.7-3.6-14.5-10.9c-3.2-5-4.7-8.8-4.7-11.4v-134H462.4z"/>
							<path class="st0" d="M604.8,334.2c2,8.7,6.5,15.7,13.4,21s15.1,7.9,24.8,7.9c8.2,0,17.9-2.8,29.3-8.4
								c5.2-2.6,10-3.9,14.5-3.9c5.9,0,8.9,2.7,8.9,8.1c0,4.8-1.1,9.5-3.2,13.9c-2.1,4.5-4.9,7.7-8.2,9.8c-6.3,3.9-13.3,6.9-21,9.1
								c-7.7,2.1-15.4,3.2-23,3.2c-13.4,0-25.6-3.5-36.6-10.6c-11.1-7.1-19.6-16.2-25.8-27.3c-6.1-11.1-9.2-23-9.2-35.7
								c0-14.1,3.3-26.9,10-38.3s15.4-20.2,26.2-26.5c10.8-6.2,22.6-9.3,35.4-9.3c12.4,0,23.6,2.9,33.6,8.8
								c9.9,5.9,17.6,13.6,23,23.3c5.4,9.6,8.1,20.2,8.1,31.8c0,5.9-1.5,11.3-4.6,16s-6.5,7.1-10.2,7.1H604.8z M639.3,277.9
								c-8.9,0-16.5,2.6-22.9,7.7c-6.3,5.1-10.2,11.9-11.7,20.5h65.8c-0.4-8-3.5-14.7-9.5-20.1C655.1,280.6,647.9,277.9,639.3,277.9
								z"/>
							<path class="st0" d="M756.4,392.4c-8.4,0-15.6-3.3-21.7-9.9c-6.1-6.6-9.2-14.4-9.2-23.3v-148c0-4.1,2.8-8,8.5-11.7
								s11.7-5.6,18.2-5.6c6.9,0,10.3,3.2,10.3,9.5v143.8c0,2.4,0.5,4.4,1.5,6s2.8,2.9,5.4,4c3,1.3,4.5,3.9,4.5,7.8
								c0,6.9-1.9,13.1-5.6,18.8C764.6,389.6,760.6,392.4,756.4,392.4z"/>
							<path class="st0" d="M812.6,231.9c-4.8,0-9.8-3.8-15-11.4c-3.5-5.4-5.3-9.6-5.3-12.5c0-4.6,3.2-9,9.5-13.1s13.1-6.1,20.4-6.1
								c7.8,0,11.7,3.5,11.7,10.6c0,5.6-1.1,10.9-3.2,16c-2.1,5.1-4.8,9.2-8.1,12.1C819.3,230.4,816,231.9,812.6,231.9z
								 M812.6,392.4c-4.3,0-8.9-3.5-13.9-10.6c-3-4.8-4.5-8.4-4.5-10.9V267c0-4.1,2.8-8,8.5-11.7s11.7-5.6,18.3-5.6
								c6.9,0,10.3,3.2,10.3,9.5v103.9c0,5-1,9.8-2.9,14.5c-2,4.6-4.4,8.3-7.2,10.9C818.3,391.1,815.4,392.4,812.6,392.4z"/>
							<path class="st0" d="M921,392.4c-13.4,0-25.5-3.3-36.4-10s-19.3-15.5-25.4-26.3c-6-10.9-9.1-22.7-9.1-35.5
								c0-13.8,3.4-26.3,10.3-37.6c6.9-11.3,15.8-20.1,26.8-26.3c11-6.2,22.7-9.3,35.4-9.3c10.8,0,21.3,3,31.5,8.9
								c6.5-4.3,13-6.4,19.5-6.4c6.9,0,10.3,3.2,10.3,9.5v103.9c0,5-1,9.8-2.9,14.5c-2,4.6-4.4,8.3-7.2,10.9
								c-2.9,2.6-5.7,3.9-8.5,3.9c-4.3,0-8.9-3.5-13.9-10.6c-1.9-3-3.2-5.6-3.9-7.8c-1.5,4.1-3.5,7.6-6,10.6s-5.1,4.9-7.9,5.9
								C929.7,391.7,925.5,392.4,921,392.4z M923.5,357.8c8.4,0,16.2-2.3,23.4-7v-63.3c-6.9-3.9-14.6-5.9-23.1-5.9
								c-10.6,0-19.5,3.6-26.6,10.7c-7.2,7.2-10.7,16.1-10.7,26.9s3.6,19.9,10.7,27.3C904.4,354.1,913.1,357.8,923.5,357.8z"/>
						</g>
					</g>
				</g>
			</g>
		</g>
	</g>
	<g>
		<g class="st4">
		</g>
	</g>
</g>
</svg>
