<?xml version="1.0" encoding="utf-8"?>
<!-- Generator: Adobe Illustrator 22.0.1, SVG Export Plug-In . SVG Version: 6.00 Build 0)  -->
<svg version="1.1" id="Layer_1" xmlns="http://www.w3.org/2000/svg" xmlns:xlink="http://www.w3.org/1999/xlink" x="0px" y="0px"
	 viewBox="0 0 1010.4 566.9" style="enable-background:new 0 0 1010.4 566.9;" xml:space="preserve">
<g>
	<g>
		<path style="fill:#88068C;" d="M114.1,224.2c16.8,1.6,33.5,3.1,50.3,4.7c12.8,1.2,26.6,2.4,37.9-5.1c0.8-0.6,1.1-2.1,0-2.6
			c-10.8-4.7-22.9-9.5-34.5-4.9c-12.4,4.9-13.8,17.8-15.3,29.5c-2.1,16-3.5,32.1-4.2,48.2c-0.6,14.3-1,29.2-9.3,41.5
			c-0.7,1,0.3,2.2,1.3,2.3c10.3,1.1,18.8-5.5,25.1-13c7.5-9.1,13.9-18.1,23.9-24.6c9.4-6.2,20.2-10.1,31.3-11.4
			c11.1-1.3,25.3-0.9,33.2,8.2c0.6-0.8,1.2-1.6,1.8-2.4c-8.4-4.5-17.1-8.4-26.1-11.5c-6.4-2.2-13.9-4.9-20.6-2.2
			c-6.3,2.5-10.6,9.8-14.1,15.2c-3.8,6-7.1,13.1-6.5,20.4c1,11.6,13,21.3,23.8,14.4c6.7-4.2,12.5-10.3,18.1-15.9
			c6.2-6.3,12-12.9,17.4-19.9c-0.9-0.3-1.9-0.5-2.8-0.8c-0.5,11.7-8,29.1,3.5,37.9c11.1,8.5,27.1,1.3,35.7-7.4
			c11.7-11.9,15.6-29.3,19.2-45c4.3-18.9,7.2-38.2,8.6-57.5c-1,0-2,0-3,0c4.8,35.7,5.3,71.9,1.5,107.7c0.9-0.3,1.9-0.5,2.8-0.8
			c-6.4-9.9-4-24.6,0.1-35.1c2.4-6.2,11.1-15.4,17.8-8.4c5.7,6-1.8,10.1-6.1,13c-6.9,4.7-4.9,9.5,0,15.2c7.6,8.9,16.4,16.7,26,23.4
			c0.5,0.4,1.4,0.2,1.8-0.2c30.3-31.4,25.7-77.8,20.5-117.4c-0.2-1.8-3.1-2-3,0c1.6,40.2,0.3,80.5-4.1,120.6c1,0,2,0,3,0
			c0.1-9.6,0.5-19.2,1.4-28.8c0.8-8.8,1-19.2,4.2-27.5c2.6-6.7,8.4-5,13.5-2.7c4.5,2.1,9.4,5,10.4,10.3c1.9,9.2-8.2,9.6-14.4,10.5
			c-3.6,0.5-7.7,1.4-9.3,5c-2.3,5,1.8,11.5,4.8,15.3c7.8,10,20.8,14.9,33.3,12.7c1.9-0.3,1.1-3.2-0.8-2.9
			c-13,2.3-27.1-4.4-33.1-16.3c-1.8-3.7-3-8.3,1.6-10c2.3-0.9,4.9-1,7.2-1.3c3.6-0.5,7.6-1,10.5-3.4c9-7.5-0.4-18.6-7.9-22.2
			c-4-1.9-9.1-4.5-13.6-2.4c-4,2-5.5,6.9-6.3,10.9c-3.4,17.2-4.4,35.2-4.6,52.7c0,2,2.8,1.9,3,0c4.4-40,5.8-80.3,4.1-120.6
			c-1,0-2,0-3,0c5.1,38.7,10.1,84.5-19.6,115.3c0.6-0.1,1.2-0.2,1.8-0.2c-6.6-4.6-12.7-9.6-18.4-15.3c-2.7-2.7-5.2-5.4-7.6-8.3
			c-1.9-2.2-4.7-4.8-2.5-7.8c0.7-1,1.9-1.6,2.9-2.3c3.3-2.2,7.5-4.1,8.8-8.2c1.2-3.7-0.7-7.9-3.6-10.2c-9.4-7.4-19.5,3.9-22.3,12.3
			c-3.7,11.2-6,25.4,0.8,35.8c0.9,1.3,2.6,0.7,2.8-0.8c3.8-35.9,3.3-72-1.5-107.7c-0.3-1.9-2.8-2-3,0c-1.3,16.5-3.5,33-6.9,49.2
			c-3,14.4-5.9,29.9-13.5,42.7c-6.7,11.3-23.2,24.7-37,16.5c-11.9-7.1-4-25.6-3.6-36.3c0.1-1.6-2-1.8-2.8-0.8
			c-7.9,10.2-16.7,19.7-26.4,28.3c-4.7,4.1-10.5,10.4-17.4,8c-6.6-2.3-10.3-9.8-9.9-16.4c0.4-6.6,3.8-12.6,7.5-17.9
			c3.8-5.6,8-12.4,15.5-12.8c6.6-0.3,13.6,2.8,19.7,5.1c6.9,2.6,13.6,5.8,20.1,9.3c1.5,0.8,2.9-1.1,1.8-2.4
			c-6.8-7.9-17.8-9.5-27.6-9.5c-10.7,0-21.4,2.5-31.1,7c-9.9,4.6-18.7,11.4-25.6,19.8c-8.1,9.9-16.3,24.2-31.2,22.6
			c0.4,0.8,0.9,1.5,1.3,2.3c6.3-9.4,8.3-20.4,9.1-31.5c1-13.5,1.3-27,2.6-40.5c0.7-7.6,1.6-15.1,2.7-22.7c0.9-6.5,1.7-13.8,6.3-18.9
			c10.3-11,27-4.7,38.5,0.3c0-0.9,0-1.7,0-2.6c-11.9,7.9-26.8,5.6-40.3,4.3c-15.5-1.4-30.9-2.9-46.4-4.3
			C112.2,221,112.2,224,114.1,224.2L114.1,224.2z"/>
	</g>
</g>
<g>
	<g>
		<path style="fill:#88068C;" d="M493.5,240.4c4.9-17.6-3.3-37-19.3-45.7c-0.7-0.4-1.7-0.2-2.1,0.5c-4.9,10-6.3,20.9-6.9,31.9
			c-0.7,13.1-1.2,26.2-2.2,39.3c-1.9,27.7-4.9,55.4-8.7,82.9c0.9-0.1,1.8-0.2,2.7-0.4c-5.5-8.4-11.4-17.1-13-27.3
			c-1.4-8.5,1-19,8.6-24c8.3-5.5,21.2-3.4,30.7-3.5c11.1,0,22.2-0.1,33.2-0.1c1.8,0,1.9-2.3,0.4-2.9c-10.6-4.4-22.8,2.5-26.9,12.7
			c-2.5,6.3-2.1,13.6,0.2,19.9c1.9,5.4,5.3,12.1,10.2,15.3c4.8,3.1,11.1,0,15.3-2.8c5.1-3.4,9.3-8.3,11.8-13.9
			c5.6-12.8,1.5-27.8-9.1-36.7c-1.5-1.3-3.3,0.6-2.1,2.1c11.1,14.2,33.4,16.1,46.9,4.3c-0.9-0.4-1.7-0.7-2.6-1.1
			c-1.3,15.2-2.5,30.3-3.8,45.5c1,0,2,0,3,0c-0.4-16,0.8-41.9,21.9-43.9c1.9-0.2,1.9-3.2,0-3c-23.1,2.2-25.4,28.9-24.9,46.9
			c0,2,2.8,1.9,3,0c1.3-15.2,2.5-30.3,3.8-45.5c0.1-1.4-1.7-1.8-2.6-1.1c-12.4,10.8-32.6,8.6-42.7-4.3c-0.7,0.7-1.4,1.4-2.1,2.1
			c8.3,7,12.7,18.3,9.9,29c-1.3,5.1-4.1,9.8-7.8,13.5c-3.8,3.7-11.7,9.4-16.9,5.8c-4.2-2.9-7.1-9.3-8.7-13.9
			c-1.8-5.2-2.2-11.1-0.4-16.4c3.2-9.5,14.1-15.8,23.6-11.8c0.1-1,0.3-2,0.4-2.9c-13.4,0.1-26.7,0.1-40.1,0.2
			c-9.8,0-21.2-1.1-28.7,6.6c-15.3,15.7-3.1,37.9,6.7,52.6c0.6,0.9,2.5,1,2.7-0.4c3.6-25.9,6.4-51.8,8.4-77.8
			c1-13.1,1.7-26.1,2.3-39.2c0.5-12.4,1.2-25,6.8-36.4c-0.7,0.2-1.4,0.4-2.1,0.5c14.9,8.1,22.5,26,18,42.3
			C490.1,241.5,493,242.3,493.5,240.4L493.5,240.4z"/>
	</g>
</g>
<g>
	<g>
		<path style="fill:#88068C;" d="M632.4,292.9c0.9,13.1,1.8,26.3,2.8,39.4c0.1,1.9,3,2,3,0c0.3-15.2,7.6-33.3,25-34.4
			c7.6-0.5,14.9,2.8,18.1,10c3.4,7.7,1.6,16.6,0,24.5c0.8-0.2,1.7-0.4,2.5-0.7c-10.3-11.3-7.7-32.2,7.7-37.5
			c6.7-2.3,14.3-1.2,19.4,3.9c5.2,5.2,6.8,13.1,6.8,20.2c-0.1,10.7-5.2,26.8,6.8,33.5c11.2,6.2,24.8-6.6,31.1-14.7
			c7.8-9.9,10.6-24,1.9-34.3c-0.3-0.4-1-0.6-1.5-0.4c-11.5,4.3-16.4,16.2-15.8,27.9c0.6,11.4,4.8,27.7,16.5,32.7
			c4.2,1.8,9.3,2.1,13.4,0c5.1-2.6,7-7.9,7.7-13.3c1-6.7,1.6-13,4.8-19.1c3.3-6.3,8.1-11.7,14.1-15.6c14.5-9.4,34-7.6,47.2,3.3
			c0.6-0.8,1.2-1.6,1.8-2.4c-10.7-7.8-23.3-16.4-37.2-12.6c-11,3-20.2,12.9-22.3,24.1c-4.2,22.8,22.9,40.5,42.7,29.9
			c12.9-6.9,18.8-21.7,23.7-34.6c0.7-1.8-2.2-2.6-2.9-0.8c-8.2,20.7-2.5,41.6-2.3,62.9c0.1,10.9-2.7,21.1-10.6,29
			c-6.8,6.8-16.3,11.1-26,11c-4.3,0-9.6-1.1-12.5-4.6c-5.8-6.8,3.6-12.7,8.4-16.3c8.6-6.5,17.6-12.6,26.4-18.8
			c16.6-11.6,33.1-23.8,46.1-39.4c13.1-15.7,22.6-34.4,23.7-55.1c0.1-1.9-2.9-1.9-3,0c-2.5,49.9-49.8,78.4-86,104.3
			c-4.5,3.2-9,6.4-13.3,9.9c-3.2,2.5-6.6,5.6-7.1,9.9c-0.8,7.5,7.2,11.8,13.6,12.8c16.9,2.5,34.5-9.2,40.5-24.7
			c4.8-12.3,2.3-25.8,1.2-38.6c-1.3-14-1.5-28.3,3.8-41.6c-1-0.3-1.9-0.5-2.9-0.8c-4.7,12.6-10.6,27.4-23.6,33.5
			c-11.8,5.6-26.8,0-33.6-10.7c-7.9-12.3-2-27.9,9.7-35.3c14.7-9.4,29.8,0.3,42,9.2c1.4,1,3.1-1.3,1.8-2.4
			c-18.1-15-45.4-13.3-60.6,4.9c-3.2,3.8-5.8,8.2-7.5,12.9c-2.1,5.6-2.1,11.3-3.3,17.1c-1.8,8.7-9.5,12.8-17.7,8.7
			c-7.3-3.7-10.4-12.4-12.2-19.8c-2-7.9-2.7-16.8,1-24.4c1.4-2.8,3.3-5.4,5.7-7.4c4.8-3.9,6.8-0.1,7.9,4.8
			c3.2,14.5-9.2,28.9-21.3,35.1c-8.9,4.6-17,0.3-18.6-9.4c-1.3-7.7,1.5-15.6,1-23.4c-0.6-9.5-4.5-19.6-13.8-23.6
			c-10.1-4.3-22.6-0.1-28.4,9.1c-6.3,10.1-4.7,24.2,3.2,32.9c0.7,0.8,2.3,0.4,2.5-0.7c1.8-9,3.8-19.5-0.8-28
			c-3.8-6.9-11.1-10.4-18.9-10.4c-19.8,0.1-28.9,20.2-29.3,37.4c1,0,2,0,3,0c-0.9-13.1-1.8-26.3-2.8-39.4
			C635.3,291,632.3,291,632.4,292.9L632.4,292.9z"/>
	</g>
</g>
</svg>
